<svg id="OUTLINE" viewBox="0 0 64 64" xmlns="http://www.w3.org/2000/svg">
    <path d="m37 2h-10a.99943.99943 0 0 0 -1 1v3h-16a.99943.99943 0 0 0 -1 1v8a.99943.99943 0 0 0 1 1h3v45a.99943.99943 0 0 0 1 1h36a.99943.99943 0 0 0 1-1v-45h3a.99943.99943 0 0 0 1-1v-8a.99943.99943 0 0 0 -1-1h-16v-3a.99943.99943 0 0 0 -1-1zm-9 2h8v2h-8zm21 56h-34v-44h34zm4-46h-42v-6h42z"/>
    <path d="m18 58h4a.99943.99943 0 0 0 1-1v-38a.99943.99943 0 0 0 -1-1h-4a.99943.99943 0 0 0 -1 1v38a.99943.99943 0 0 0 1 1zm1-38h2v36h-2z"/>
    <path d="m26 58h4a.99943.99943 0 0 0 1-1v-38a.99943.99943 0 0 0 -1-1h-4a.99943.99943 0 0 0 -1 1v38a.99943.99943 0 0 0 1 1zm1-38h2v36h-2z"/>
    <path d="m34 58h4a.99943.99943 0 0 0 1-1v-38a.99943.99943 0 0 0 -1-1h-4a.99943.99943 0 0 0 -1 1v38a.99943.99943 0 0 0 1 1zm1-38h2v36h-2z"/>
    <path d="m42 58h4a.99943.99943 0 0 0 1-1v-38a.99943.99943 0 0 0 -1-1h-4a.99943.99943 0 0 0 -1 1v38a.99943.99943 0 0 0 1 1zm1-38h2v36h-2z"/>
</svg>